<?xml version="1.0" standalone="no"?>
<!DOCTYPE svg PUBLIC "-//W3C//DTD SVG 20010904//EN"
 "http://www.w3.org/TR/2001/REC-SVG-20010904/DTD/svg10.dtd">
<svg version="1.0" xmlns="http://www.w3.org/2000/svg"
 width="2104.000000pt" height="1476.000000pt" viewBox="0 0 2104.000000 1476.000000"
 preserveAspectRatio="xMidYMid meet">

<g transform="translate(0.000000,1476.000000) scale(0.100000,-0.100000)" stroke="none">
<path d="M10245 12603 c-863 -75 -1577 -347 -2255 -859 -313 -237 -655 -567
-888 -857 -135 -169 -294 -454 -372 -666 -88 -242 -136 -708 -119 -1155 5
-110 7 -201 6 -202 -1 -1 -42 4 -90 11 -267 40 -437 50 -882 49 -460 0 -580
-7 -910 -54 -1058 -152 -1924 -572 -2513 -1220 -199 -219 -335 -424 -493 -744
-480 -970 -528 -1944 -138 -2809 220 -488 610 -971 1109 -1371 391 -314 514
-386 862 -505 815 -278 2049 -376 3583 -286 307 19 401 33 556 85 522 174 872
598 993 1203 46 227 49 296 47 900 l-2 567 293 1 c161 0 388 4 503 8 422 15
602 -22 729 -147 76 -74 87 -105 91 -246 4 -130 37 -304 80 -423 59 -163 224
-360 403 -482 115 -77 301 -167 447 -215 306 -100 570 -137 1104 -154 l203 -7
32 -90 c161 -450 482 -771 915 -915 155 -52 248 -66 551 -84 536 -32 963 -40
1525 -27 562 13 688 20 935 52 438 56 1075 221 1379 357 198 89 286 148 681
460 161 127 457 418 564 552 363 460 586 923 685 1428 54 272 71 734 37 1017
-119 983 -668 1801 -1686 2512 -213 148 -380 231 -660 327 -721 248 -1738 340
-2815 256 -65 -5 -120 -8 -121 -7 -1 1 9 48 21 105 36 160 48 311 42 536 -6
219 -25 356 -78 555 -185 695 -680 1332 -1421 1829 -355 238 -989 486 -1556
608 -389 83 -690 115 -1077 112 -143 -1 -278 -3 -300 -5z m974 -1987 c690 -92
1278 -362 1696 -781 289 -288 465 -603 535 -960 42 -212 37 -505 -10 -691 -23
-90 -16 -116 41 -138 35 -14 50 -14 142 -1 432 62 993 42 1450 -51 889 -180
1651 -656 2089 -1304 278 -411 392 -811 375 -1315 -43 -1278 -901 -2224 -2329
-2565 -390 -93 -960 -144 -1194 -106 -309 49 -509 193 -608 437 -58 142 -56
71 -56 1770 l0 1562 -57 79 c-74 102 -165 188 -240 224 -48 23 -71 29 -133 29
-63 0 -85 -5 -141 -31 -79 -38 -183 -132 -239 -217 l-40 -62 0 -1256 c0 -691
-3 -1324 -7 -1407 l-6 -152 -196 0 c-448 1 -601 33 -726 151 -102 97 -149 242
-126 394 15 106 14 250 -4 320 -55 216 -209 381 -480 515 -423 210 -1027 306
-1873 298 l-342 -3 0 567 c0 311 -3 568 -8 570 -4 2 -28 32 -54 68 -62 88
-169 187 -237 219 -82 38 -184 37 -266 -3 -73 -36 -208 -167 -253 -246 l-32
-55 0 -1563 c0 -1700 2 -1629 -56 -1771 -99 -244 -299 -388 -608 -437 -234
-38 -804 13 -1194 106 -1125 269 -1896 906 -2197 1815 -83 249 -123 475 -132
750 -22 651 201 1219 657 1675 166 167 273 252 573 458 100 68 377 209 523
266 327 126 692 216 1095 270 327 44 459 51 904 50 353 -1 435 -3 514 -18 88
-16 98 -16 137 -1 49 19 71 56 55 96 -51 136 -63 497 -23 698 74 365 246 676
537 966 425 426 1072 717 1740 784 61 6 126 13 145 15 79 9 551 -4 659 -18z"/>
</g>
</svg>
